/* XPM */
static char *Pixmap[] = {
"16 16 256 3",
"000 c #78313F",
"001 c #495256",
"002 c #6B694F",
"003 c #6B6868",
"004 c #626F73",
"005 c #626E74",
"006 c #656D73",
"007 c #6B6E73",
"008 c #657075",
"009 c #647076",
"010 c #647176",
"011 c #6B7479",
"012 c #6A757B",
"013 c #69747D",
"014 c #69747E",
"015 c #69777E",
"016 c #6B777D",
"017 c #6B777E",
"018 c #6D757A",
"019 c #6F777E",
"020 c #6A797F",
"021 c #767377",
"022 c #747474",
"023 c #6F828B",
"024 c #6D868C",
"025 c #728086",
"026 c #758188",
"027 c #76828A",
"028 c #74848C",
"029 c #70888F",
"030 c #7B8287",
"031 c #788188",
"032 c #79868B",
"033 c #7B888B",
"034 c #7D898E",
"035 c #7A8791",
"036 c #788891",
"037 c #7A8A91",
"038 c #7B8D94",
"039 c #7A8F96",
"040 c #7C8890",
"041 c #7C8A92",
"042 c #7D8A93",
"043 c #7F8E95",
"044 c #7D979E",
"045 c #9D3B3B",
"046 c #A35254",
"047 c #A9595B",
"048 c #BC4648",
"049 c #A97076",
"050 c #BD6163",
"051 c #CF4F50",
"052 c #C35D5F",
"053 c #C55859",
"054 c #D05655",
"055 c #D65153",
"056 c #D45656",
"057 c #DE5C5A",
"058 c #DA735C",
"059 c #E45054",
"060 c #E6625F",
"061 c #FC6564",
"062 c #FF6565",
"063 c #FE6665",
"064 c #FF6867",
"065 c #FF6968",
"066 c #FF6B69",
"067 c #9C9952",
"068 c #AA9661",
"069 c Gray52",
"070 c #80878B",
"071 c #818E96",
"072 c #808F99",
"073 c #81939A",
"074 c #829099",
"075 c #829299",
"076 c #839399",
"077 c #83939A",
"078 c #83979F",
"079 c #84939A",
"080 c #869499",
"081 c #87959E",
"082 c #87969E",
"083 c #8A9093",
"084 c #8C9092",
"085 c #8E9295",
"086 c #8A949B",
"087 c #89959E",
"088 c #8C959B",
"089 c #8E979C",
"090 c #90999E",
"091 c #939A9E",
"092 c #969B9C",
"093 c #9B9E9F",
"094 c #869EA6",
"095 c #899BA3",
"096 c #8A98A1",
"097 c #8A99A2",
"098 c #8C99A2",
"099 c #8D9AA3",
"100 c #8D9BA5",
"101 c #8F9CA5",
"102 c #8D9DA8",
"103 c #8F9FA9",
"104 c #909EA7",
"105 c #909EA8",
"106 c #919FA8",
"107 c #929FA9",
"108 c #999FA1",
"109 c #8DA0A8",
"110 c #96A0A7",
"111 c #93A2AB",
"112 c #93A2AC",
"113 c #94A4AD",
"114 c #95A4AD",
"115 c #96A4AD",
"116 c #96A5AE",
"117 c #98A0A7",
"118 c #99A0A6",
"119 c #9EA2A4",
"120 c #9FA2A4",
"121 c #9EA7AD",
"122 c #95A6B0",
"123 c #97A6B0",
"124 c #98A7B1",
"125 c #98A8B1",
"126 c #99AAB2",
"127 c #9AA9B3",
"128 c #9DADB7",
"129 c #A7ACAF",
"130 c #AFB1B2",
"131 c #B0B3B5",
"132 c #B5B8B9",
"133 c #B4B9BC",
"134 c #B8BDC0",
"135 c #C0C1C1",
"136 c #C0C1C2",
"137 c #C6C7C8",
"138 c #C7C9CB",
"139 c #C6CACC",
"140 c Gray79",
"141 c #CACACB",
"142 c #C8CBCD",
"143 c #CFD0D0",
"144 c #D1D2D4",
"145 c #D1D3D5",
"146 c #D4D5D5",
"147 c #D8D9D9",
"148 c Gray85",
"149 c #D9DADA",
"150 c #DDDDDE",
"151 c #DFDFDF",
"152 c Gray88",
"153 c Gray90",
"154 c #E7E7E6",
"155 c Gray91",
"156 c #E9E9E9",
"157 c #E9EAEA",
"158 c #EBECEC",
"159 c #ECEBEB",
"160 c #EFEFEF",
"161 c Gray94",
"162 c #F1F1F1",
"163 c #F5F4F4",
"164 c Gray96",
"165 c #F6F5F5",
"166 c Gray97",
"167 c #F9F9F9",
"168 c Gray98",
"169 c Gray99",
"170 c #FDFDFC",
"171 c #FEFDFD",
"172 c Gray100",
"173 c black",
"174 c black",
"175 c black",
"176 c black",
"177 c black",
"178 c black",
"179 c black",
"180 c black",
"181 c black",
"182 c black",
"183 c black",
"184 c black",
"185 c black",
"186 c black",
"187 c black",
"188 c black",
"189 c black",
"190 c black",
"191 c black",
"192 c black",
"193 c black",
"194 c black",
"195 c black",
"196 c black",
"197 c black",
"198 c black",
"199 c black",
"200 c black",
"201 c black",
"202 c black",
"203 c black",
"204 c black",
"205 c black",
"206 c black",
"207 c black",
"208 c black",
"209 c black",
"210 c black",
"211 c black",
"212 c black",
"213 c black",
"214 c black",
"215 c black",
"216 c black",
"217 c black",
"218 c black",
"219 c black",
"220 c black",
"221 c black",
"222 c black",
"223 c black",
"224 c black",
"225 c black",
"226 c black",
"227 c black",
"228 c black",
"229 c black",
"230 c black",
"231 c black",
"232 c black",
"233 c black",
"234 c black",
"235 c black",
"236 c black",
"237 c black",
"238 c black",
"239 c black",
"240 c black",
"241 c black",
"242 c black",
"243 c black",
"244 c black",
"245 c black",
"246 c black",
"247 c black",
"248 c black",
"249 c black",
"250 c black",
"251 c black",
"252 c black",
"253 c black",
"254 c black",
"255 c black",
"172148132151172172154159163172172136001135172172",
"143080016008119146092108130156120018012034165172",
"009102152147090036043020037015131166138133170172",
"150142172172134019022004069006144172172172172172",
"172172172164091074097079025010084159172172172172",
"172172163121122077112096113075073032155172172172",
"172161110042076071105040107099082028093172172172",
"172149017099126111104098087115128026088168172172",
"172169117125106114124127123116101103129172172172",
"172167086081078029024039044094109095083169172172",
"172172137027049050052046053047021038089168172172",
"172172157070058062065056061064059007158172172172",
"172172145033067057066054063060068031160172172172",
"172172153072003000048051055045002074162172172172",
"172172172151118041023013014035100139172172172172",
"172172172172171140085011005030141172172172172172"
};
