/* XPM */
static char *Pixmap[] = {
"32 32 256 3",
"000 c black",
"001 c #000009",
"002 c #170D02",
"003 c #1F2528",
"004 c #270000",
"005 c #34001E",
"006 c #38192F",
"007 c #282D30",
"008 c #343333",
"009 c #3B3032",
"010 c #3D3A37",
"011 c #3C3C3C",
"012 c #440029",
"013 c #48002B",
"014 c #490031",
"015 c #4F1F38",
"016 c #581E38",
"017 c #553800",
"018 c #5E2A36",
"019 c #5D3333",
"020 c #4F3B47",
"021 c #620F40",
"022 c #7E5C16",
"023 c #786933",
"024 c #7B6F3D",
"025 c #424141",
"026 c #444A4E",
"027 c #434E52",
"028 c #484E52",
"029 c #4F4E53",
"030 c #435559",
"031 c #4B5255",
"032 c #4E565B",
"033 c #4F585E",
"034 c #5B4F51",
"035 c #52565A",
"036 c #53595E",
"037 c #5C5B5B",
"038 c #535D63",
"039 c #585D62",
"040 c #466063",
"041 c #556165",
"042 c #5B6163",
"043 c #5B6469",
"044 c #59666C",
"045 c #5C666C",
"046 c #59696E",
"047 c #5E686E",
"048 c #596B71",
"049 c #5F6A71",
"050 c #577076",
"051 c #604A4C",
"052 c #715750",
"053 c #6D5E64",
"054 c #646261",
"055 c #62666B",
"056 c #61686B",
"057 c #616A6E",
"058 c #666B6E",
"059 c #6C6A69",
"060 c #636D73",
"061 c #626E75",
"062 c #666D71",
"063 c #646F75",
"064 c #636F78",
"065 c #696E72",
"066 c #657075",
"067 c #637278",
"068 c #657278",
"069 c #697173",
"070 c #687077",
"071 c #6D7072",
"072 c #6A7379",
"073 c #6B747A",
"074 c #6B777C",
"075 c #6D767A",
"076 c #6D757D",
"077 c #6A787E",
"078 c #6D787E",
"079 c #7E6268",
"080 c #71706F",
"081 c #73787A",
"082 c #70797E",
"083 c #767A7C",
"084 c #797878",
"085 c #7F7F7E",
"086 c #677880",
"087 c #697680",
"088 c #6B7C82",
"089 c #6E7A81",
"090 c #6D7E83",
"091 c #6E7F86",
"092 c #707A81",
"093 c #717C82",
"094 c #727E85",
"095 c #747F86",
"096 c #747F88",
"097 c #6A8289",
"098 c #748086",
"099 c #728189",
"100 c #73848A",
"101 c #778188",
"102 c #75838C",
"103 c #75848B",
"104 c #76868C",
"105 c #798186",
"106 c #7F8080",
"107 c #78828A",
"108 c #79858A",
"109 c #79858C",
"110 c #7D8589",
"111 c #7C888E",
"112 c #7C8790",
"113 c #7A8A90",
"114 c #798C93",
"115 c #7D8890",
"116 c #7F8B94",
"117 c #7D8D93",
"118 c #7E8D94",
"119 c #7F8C99",
"120 c #7F9096",
"121 c #83343B",
"122 c #803938",
"123 c #8D3B3C",
"124 c #8D3C41",
"125 c #923F41",
"126 c #B53F4A",
"127 c #9A423F",
"128 c #916600",
"129 c #876628",
"130 c #994243",
"131 c #877F4B",
"132 c #8B686E",
"133 c #A44343",
"134 c #AA4140",
"135 c #B44B4C",
"136 c #BE4B4A",
"137 c #BD5050",
"138 c #B85B52",
"139 c #CA4F4E",
"140 c #C15251",
"141 c #C55955",
"142 c #D05756",
"143 c #D35458",
"144 c #DB5357",
"145 c #D95459",
"146 c #DD5857",
"147 c #DB5B5A",
"148 c #E25C5C",
"149 c #E95C5B",
"150 c #EC615F",
"151 c #F36262",
"152 c #FE6665",
"153 c #FF6867",
"154 c #FF6868",
"155 c #899161",
"156 c #9B9C62",
"157 c #A69051",
"158 c #A8B675",
"159 c #848383",
"160 c #858686",
"161 c #83898D",
"162 c #868889",
"163 c #84898D",
"164 c #898A8A",
"165 c #8A8C8D",
"166 c #8C8B8A",
"167 c #8E8E8E",
"168 c #808B92",
"169 c #818D91",
"170 c #818D95",
"171 c #868C90",
"172 c #808F99",
"173 c #829096",
"174 c #81919A",
"175 c #83939D",
"176 c #82949A",
"177 c #82959C",
"178 c #859199",
"179 c #86929C",
"180 c #87949B",
"181 c #85969D",
"182 c #86989E",
"183 c #8D9093",
"184 c #89959D",
"185 c #909496",
"186 c Gray59",
"187 c #949798",
"188 c #929A9E",
"189 c #979A9C",
"190 c #989797",
"191 c #989999",
"192 c #8695A0",
"193 c #8699A0",
"194 c #8996A0",
"195 c #8999A1",
"196 c #8A9AA4",
"197 c #8A9CA2",
"198 c #8B9DA4",
"199 c #8C9AA3",
"200 c #8E9BA4",
"201 c #8E9CA5",
"202 c #8C9EA8",
"203 c #919DA5",
"204 c #929FA8",
"205 c #9D9FA0",
"206 c #8CA0AC",
"207 c #93A3AC",
"208 c #96A6B1",
"209 c #96A9B3",
"210 c #98A9B2",
"211 c #9AAAB4",
"212 c #9AACB5",
"213 c #9CABB4",
"214 c #9CADB6",
"215 c #9EAFB9",
"216 c #A1A2A3",
"217 c #A5A7A9",
"218 c #A9A9A9",
"219 c Gray68",
"220 c #ADAFB0",
"221 c #A1B2BC",
"222 c #AFB0B0",
"223 c #B0B0AF",
"224 c #B4B5B5",
"225 c #B7B7B8",
"226 c #BAB9BA",
"227 c #A5B5C0",
"228 c #AABAC5",
"229 c #D1D686",
"230 c #E6EC94",
"231 c #C1C1C1",
"232 c #C5C5C6",
"233 c Gray79",
"234 c #CDCDCD",
"235 c #D2D2D2",
"236 c Gray84",
"237 c Gray85",
"238 c #DBDCDC",
"239 c #DCDBDB",
"240 c #DDDDDD",
"241 c #E0DFDF",
"242 c #E2E2E1",
"243 c #E4E3E3",
"244 c #E7E6E6",
"245 c #E8E7E7",
"246 c #E9E9E9",
"247 c #ECECEB",
"248 c Gray93",
"249 c #F2F1F1",
"250 c #F4F4F3",
"251 c Gray96",
"252 c #F8F7F7",
"253 c #F8F8F7",
"254 c #F9F9F9",
"255 c #FEFEFE",
"255255255242239247255255255255255255255249236255253255255255255255255241159000059250255255255255",
"255246189169108105187233250255255247235231233255236242255255255248218069066093063164254255255255",
"255185113118067077067046075218248246164071081165085233255255231056044061045028198046231255255255",
"218104210107162161072049068090073075113174177120099066191167041066161216224070213091219255255255",
"007204221178251253237220110201181196197181066104197193100100098232254255255161192171249255255255",
"037174209217255255255255226202194065171057038039094110057199083255255255255248237250255255255255",
"249225163238255255255255225202095183216159117104191218085172107250255255255255255255255255255255",
"255255254255255255255255222202039025000011028027084011010058072247255255255255255255255255255255",
"255255255255255255255255167033095179204198118098077074047031003218252255255255255255255255255255",
"255255255255255255249189179214221211210221215211196181193182170067065236255255255255255255255255",
"255255255255255250188208221208193118196215204204212197182181182195120033236255255255255255255255",
"255255255255252186170221207181104089214116109073214208093113181181182176042244255255255255255255",
"255255255241203195107107195093043207221107116073221109207111181181118118088191255255255255255255",
"255255250184204089204178176195208108221076208109207213170227211108116108041084255255255255255255",
"255255240064184072115221195212221184214210109203199194107214213210204098195063243255255255255255",
"255255252160060101194221215215201184203184200200201178204228221227078035199113239255255255255255",
"255255255244094208213178178178203170207208207207184201168184180210208207174164255255255255255255",
"255255255244094227215203208215221227221221221221221221221215208105184221114216255255255255255255",
"255255255237116112208208201170109094093101111178197207208208210208212208103190255255255255255255",
"255255255234120194076092112180120104117176179181174177181182181181181193074032236255255255255255",
"255255255248055117211210202097048033035036035026051034030050114182182181063102234255255255255255",
"255255255255248190038029133139146148149149146123151151144134019040113204198093247255255255255255",
"255255255255255225206132152153153153153153151130153152153153151136009026189243255255255255255255",
"255255255255254171208052138145153152153152151125152152153152153152079086236255255255255255255255",
"255255255255247115119156230155144152152152151123152152153151141135053175225255255255255255255255",
"255255255255243109208008157024143154153152150122152153153126158229031196222255255255255255255255",
"255255255255246070227099128129121148153153152137153153154127023131042192226255255255255255255255",
"255255255255255167118215038004021016124137147148147142135018022017192192232255255255255255255255",
"255255255255255250160087211192055020006001005013012013014015041199221107239255255255255255255255",
"255255255255255255255226055096207210207194112078076107184207221208173235255255255255255255255255",
"255255255255255255255255251233159062082115170179194199184116082205247255255255255255255255255255",
"255255255255255255255255255255255242223166054002000000080084232255255255255255255255255255255255"
};
