/* XPM */
static char *Pixmap[] = {
"64 64 256 3",
"000 c black",
"001 c #01020C",
"002 c #050806",
"003 c #000B0A",
"004 c #0B0000",
"005 c #0D0A03",
"006 c #0F0E0F",
"007 c #000A12",
"008 c #0E011A",
"009 c #080A15",
"010 c #00110A",
"011 c #03101B",
"012 c #001B11",
"013 c #06181E",
"014 c #0B1217",
"015 c #0E121C",
"016 c #0B1A1D",
"017 c #140504",
"018 c #160014",
"019 c #120E12",
"020 c #1D0C12",
"021 c #131314",
"022 c #131518",
"023 c #15191A",
"024 c #181514",
"025 c #1D1118",
"026 c #191A1C",
"027 c #0E1D22",
"028 c #101026",
"029 c #171D22",
"030 c #131F28",
"031 c #1E1E21",
"032 c #002326",
"033 c #162026",
"034 c #122228",
"035 c #1C2020",
"036 c #192329",
"037 c #1D2828",
"038 c #132E32",
"039 c #210000",
"040 c #271818",
"041 c #371919",
"042 c #210D23",
"043 c #370621",
"044 c #391B20",
"045 c #372200",
"046 c #232424",
"047 c #232528",
"048 c #24282C",
"049 c Gray17",
"050 c #262C31",
"051 c #2C2E30",
"052 c #2B3234",
"053 c #2E3638",
"054 c #323434",
"055 c #33363A",
"056 c #35393C",
"057 c #3B3B3C",
"058 c #203F44",
"059 c #363D42",
"060 c #393D42",
"061 c #335135",
"062 c #2C484C",
"063 c #354044",
"064 c #37444A",
"065 c #3D4144",
"066 c #3C4449",
"067 c #3D484D",
"068 c #374D52",
"069 c #3A5155",
"070 c #491512",
"071 c #530A1F",
"072 c #450025",
"073 c #461E21",
"074 c #4C1C32",
"075 c #561933",
"076 c #46351E",
"077 c #573F1D",
"078 c #4A2325",
"079 c #4D2136",
"080 c #54203C",
"081 c #640028",
"082 c #7C1833",
"083 c #602D29",
"084 c #652F30",
"085 c #6A302F",
"086 c #772E2C",
"087 c #793435",
"088 c #5F2442",
"089 c #681E42",
"090 c #682A49",
"091 c #752E51",
"092 c #7D3256",
"093 c #5D4218",
"094 c #444334",
"095 c #52513D",
"096 c #664E24",
"097 c #6F5C33",
"098 c #705C2E",
"099 c #424344",
"100 c #414649",
"101 c #44494C",
"102 c #484646",
"103 c #4A4B4B",
"104 c #454D51",
"105 c #494F53",
"106 c #455155",
"107 c #4C5155",
"108 c #4C5459",
"109 c #4C585D",
"110 c #504E4E",
"111 c #525253",
"112 c #50565A",
"113 c #53595D",
"114 c #585758",
"115 c #5B5C5C",
"116 c #545C62",
"117 c #585E62",
"118 c #4E6367",
"119 c #566165",
"120 c #566368",
"121 c #5A6165",
"122 c #5C646A",
"123 c #5D686D",
"124 c #5F6D72",
"125 c #605F60",
"126 c #777B56",
"127 c #626363",
"128 c #60656B",
"129 c #626A6E",
"130 c Gray42",
"131 c #626C71",
"132 c #666E78",
"133 c #6A6F74",
"134 c #657175",
"135 c #667278",
"136 c #697175",
"137 c #6B747A",
"138 c #6D797D",
"139 c #747475",
"140 c #71777D",
"141 c #727C7F",
"142 c #787776",
"143 c #787778",
"144 c #7C7B7B",
"145 c #6E7B81",
"146 c #727C83",
"147 c #7C8158",
"148 c #748185",
"149 c #768288",
"150 c #7D8286",
"151 c #7A848B",
"152 c #7B888E",
"153 c #7D8790",
"154 c #7D8B91",
"155 c #881F38",
"156 c #8B2A39",
"157 c #843D3D",
"158 c #89325D",
"159 c #963B41",
"160 c #89652A",
"161 c #8C4042",
"162 c #994445",
"163 c #A94A4A",
"164 c #AE5151",
"165 c #B34E4D",
"166 c #B34E50",
"167 c #BC5252",
"168 c #C35556",
"169 c #D85E5D",
"170 c #DB615F",
"171 c #E1615E",
"172 c #E86262",
"173 c #FE6766",
"174 c #A8823D",
"175 c #BC8F3D",
"176 c #898965",
"177 c #95996A",
"178 c #B28943",
"179 c #BC9142",
"180 c #ACB173",
"181 c #B9BB7B",
"182 c #C08F3A",
"183 c #CB9C3D",
"184 c #D69F32",
"185 c #C09241",
"186 c #818182",
"187 c #888887",
"188 c #8B8B8B",
"189 c #818C93",
"190 c #838F98",
"191 c #829096",
"192 c #84959C",
"193 c #86989E",
"194 c #89959C",
"195 c #8A989E",
"196 c #908F8F",
"197 c #939393",
"198 c #989797",
"199 c #9B9B9B",
"200 c #8696A0",
"201 c #8698A0",
"202 c #8A97A0",
"203 c #8A9AA2",
"204 c #8F9FA8",
"205 c #909DA5",
"206 c #929EA8",
"207 c #8FA0A9",
"208 c #92A0A7",
"209 c #94A2AB",
"210 c #97A8AF",
"211 c #98A5AE",
"212 c #96A6B0",
"213 c #96A8B1",
"214 c #99A6B1",
"215 c #9BAAB4",
"216 c #9EAEB9",
"217 c #9EB0BA",
"218 c #A09F9E",
"219 c #A3A3A4",
"220 c #A7A8A8",
"221 c #A8A7A7",
"222 c #AAAAAA",
"223 c #A1AEB7",
"224 c #A0AEB9",
"225 c #A1B1BC",
"226 c Gray70",
"227 c #B7B7B8",
"228 c #BBBBBB",
"229 c #A3B4C0",
"230 c #A7B8C2",
"231 c #AABAC5",
"232 c #ADBEC8",
"233 c #AEC0CA",
"234 c #BFC0C0",
"235 c #C6C984",
"236 c #D6D78D",
"237 c #D5D692",
"238 c #F3F29B",
"239 c #FEFEA1",
"240 c #C4C3C3",
"241 c #C7C7C8",
"242 c #C9C9C7",
"243 c Gray80",
"244 c #D0D0CF",
"245 c Gray83",
"246 c #D7D8D8",
"247 c gainsboro",
"248 c Gray89",
"249 c #EAEBEB",
"250 c #EFEFF0",
"251 c #F0F0EF",
"252 c #F3F3F4",
"253 c #FEFEFE",
"254 c black",
"255 c black",
"253253253253253253253253253253253253253253253253253253253253253253253253253253253253248240253253253253253253253253253253253253253253253253253253248218057000000218252253253253253253253253253253",
"253253253253251243222198198218228247251253253253253253253253253253253253253253220252244227253253253243251253253253253253253253253253253253244196102046055055026000142249253253253253253253253253",
"253253253228125124146148138123067029099188244252253253253253253253252218222253219227243241253253249219252241253253253253253253253253243130000106137189192190189138048103249253253253253253253253",
"253253227001153201193203203203193192148106000111222248253253253253253252222197248187245227251253222247226247253253253253253253248143034145191152146123100131192201191007144253253253253253253253",
"253251111154200192192140120119124138152192191138063022142246253253253252240000111046054046054127099222218253253253253253252221014119189141104056116141022000151201193138000245253253253253253253",
"253222124193192207195021141153140113055053121152193152104000187244228110067131135148152152152134100000054226251253253246127104141131105117189205194145000113224203192190000222253253253253253253",
"248114189192209217190000117122132194209194129052056137193152116027053152193193193193193193192193192191124036057197198056136129121148152136112101197226046128224210192193052198253253253253253253",
"186108193212216229149143248246228143066116151203152136192192193192191193192192192192193193200192200193193192145066106148116148192123199244248249253253144137229216204152099247253253253253253253",
"000123212217225229135222253253253253248226187055146208209201203204203193192192192192131149135194192192193192201203201192191154133242253253253253253253218120229217214063228253253253253253253253",
"000135225217225216112247253253253253253253253247218051212223148137205215209203193193056101054191193192193193191137123192145110249253253253253253253253247127121108111226253253253253253253253253",
"049105223224225209114252253253253253253253253253249065215224203131055059131137137123023129026137193192152116036129141209121110253253253253253253253253253253248247251253253253253253253253253253",
"244057122215229190186253253253253253253253253253247059216217224216113199221198057006148192131056065056139226127138229229190031249253253253253253253253253253253253253253253253253253253253253253",
"253247142056138104245253253253253253253253253253244066216215116151099245220242243022191193193154035242240226241026145215209006248253253253253253253253253253253253253253253253253253253253253253",
"253253253247221241253253253253253253253253253253242108225209055189103220000000219099151201201191065252187000197114000154214001247253253253253253253253253253253253253253253253253253253253253253",
"253253253253253253253253253253253253253253253253240113229215100150056110000000004000056121119108047228130000102099144121215000240253253253253253253253253253253253253253253253253253253253253253",
"253253253253253253253253253253253253253253253253234048215214056000000000023057104101056022000000000000000000000006130100195000226253253253253253253253253253253253253253253253253253253253253253",
"253253253253253253253253253253253253253253253253228000056056101132151194207209204193190189152148138137136128108056000000000000130249253253253253253253253253253253253253253253253253253253253253",
"253253253253253253253253253253253253253253253243103050112194216225225225225225217215212203193193201201201201193192151138119054000049226251253253253253253253253253253253253253253253253253253253",
"253253253253253253253253253253253253253253199052153215216225225217217217223216217217217216210203192192192192192193193201193191151123000110243253253253253253253253253253253253253253253253253253",
"253253253253253253253253253253253253251144120214229223217217215209204201201203216217217217225216209193192192192192192192193192193202191106000222253253253253253253253253253253253253253253253253",
"253253253253253253253253253253253249130154225217224217217209192192192193192209217225225225225225225215193192192192192192193192192193194192131000226253253253253253253253253253253253253253253253",
"253253253253253253253253253253253144192225217217217216203192192193193145192217225215192136123191224225215192192192192192192192192192192192202134000240253253253253253253253253253253253253253253",
"253253253253253253253253253253228140229217217217216203192192201191108105208225215060112149154055206225217212193193201193192192192192193192193200123000245253253253253253253253253253253253253253",
"253253253253253253253253252226000031121195225225204192192201152066146217225225206100216225189121224231229153108105119154193192193192192192193200192067102251253253253253253253253253253253253253",
"253253253253253253253234150146189153138026153215192193192131054057215225217225202113154065000151231232205104209206148054154192192193192193200193201154000222253253253253253253253253253253253253",
"253253253253253253240137216229229229229136100205192193121108205119190225217225153123211205206105190233206104231233232149208203192200190152152151154193116115253253253253253253253253253253253253",
"253253253253253249117216217209152205225212113154193192191207229191116225217225131138229229229131148229231140107216233230224217206131108107107060049065065130253253253253253253253253253253253253",
"253253253253253198135229211107112048189225216203192192203217217215065205225225119137205212149101215225230232189099215232217214122190215216216212192123000065251253253253253253253253253253253253",
"253253253253253111138229149000129057107216225209192192213217217225152112224225212202055065121212215141215232231128141232229202151225225224195189215215151000228253253253253253253253253253253253",
"253253253253253114104224215189190211141215224216203203223217217225217205216225225225215214225225215134101116112131223232225217225217215129131113101211215134111252253253253253253253253253253253",
"253253253253253221000117194215215189153224217217216210217217217209215225225215212225215206215224225224215211209232232231225217217225206006113122005190217189125252253253253253253253253253253253",
"253253253253253253226000000048057055189224225225217225224225209127133189205131127146190190128153211129205153189214231230216225217217225128000148209223216145196253253253253253253253253253253253",
"253253253253253253253142135203205215225225215189215216136211209137128140194203206203205194204202190128209153117121208202211215216217225210138206229211137100246253253253253253253253253253253253",
"253253253253253253253197154229225225224203140149128151136203217203212225225225225225225225225225213206217209212203194140152115215213214225217225213113000199253253253253253253253253253253253253",
"253253253253253253253197137229217224217210151202189210225217217225225217217224224217217217217217217225225217225225216217211189195125101209225217213192119197253253253253253253253253253253253253",
"253253253253253253253144065214225224217225214215225217217217217217225217225217225217225225225217225217217217217217217225217229194133148211225216203193120198253253253253253253253253253253253253",
"253253253253253253253130190209215225225217225225217225225225216216215215211209209208205208209209214215217217217225217225217225216216225225225213192193064222253253253253253253253253253253253253",
"253253253253253253252113216148051191214216216214205153136113101065055051051054066112117129137148151154193203205204203207209207210212213215215207192192016198252253253253253253253253253253253253",
"253253253253253253249100215215134002047100099051049065119138146138124138151154191193193200193193193193192192192192192192192191192192192192193192193151047104186253253253253253253253253253253253",
"253253253253253253249000205225225209189146154203211215225216209203201203193203193193193193201201201201201201201193193192193192192192192192192192193113112191060250253253253253253253253253253253",
"253253253253253253252125055207225229225229225225225216207201192154152148146146149149148146137131122122124135145151190193201192192192193192192193189035148194056248253253253253253253253253253253",
"253253253253253253253246000000138209216216215215206152124109058032000000000000000000000000000000004039004000000000052116148192193200192192192193146053200203111252253253253253253253253253253253",
"253253253253253253253253247139000031101100100052003004070086162163163166167168168168168168044157172172171169166157041000000100138192193192192193203206229189144253253253253253253253253253253253",
"253253253253253253253253253253246051115149066070168171172173173173173173173173173173173173078164173173173173173173172167087000000060137193210224225217194007228253253253253253253253253253253253",
"253253253253253253253253253253248048214229118163173173173173173173173173173173173173173173078164173173173173173173173173173169161000000056121137129052051228253253253253253253253253253253253253",
"253253253253253253253253253253220109225217068167173173173173173173173173173173173173173172073164173173173173173173173173173173173170084003035000125234250253253253253253253253253253253253253253",
"253253253253253253253253253253115189229211038169173173173173173173173173173173173173173173044163173173173173173173173173173173173173159068209013197253253253253253253253253253253253253253253253",
"253253253253253253253253253247050215229190000075081156168172173173173173173173173173173172041163173173173173173173173173173173173173162069225138099252253253253253253253253253253253253253253253",
"253253253253253253253253253234064224224116126236235177012087172173173173173173173173173172020163173173173173173173173173173173173173163062216194000248253253253253253253253253253253253253253253",
"253253253253253253253253253221120229206000176238239239237003166173173173173173173173173172019163173173173173173173173173167155082159084104217206000246253253253253253253253253253253253253253253",
"253253253253253253253253253196132229215107000095181235177010166173173173173173173173173172003163173173173173173173173162061180180126000113224214000243253253253253253253253253253253253253253253",
"253253253253253253253253253186135225225194000076160160160000168173173173173173173173173171000163173173173173173173173071126239239238094015211216030234253253253253253253253253253253253253253253",
"253253253253253253253253253186117225217225123045185184182003164173173173173173173173173171000162173173173173173173172044000147181236126028214215033243253253253253253253253253253253253253253253",
"253253253253253253253253253220011215225225206001096175174000000161172173173173173173173173167165173173173173173173170001098093004000000105224214014246253253253253253253253253253253253253253253",
"253253253253253253253253253247000151225217225129000024040074088000041162169172173173173173173173173173173173173173163000178183179097000190229202000248253253253253253253253253253253253253253253",
"253253253253253253253253253253186000202229217215121000000090158158088008002083162168169171172173172172170168163157040043076096077000123217225202049249253253253253253253253253253253253253253253",
"253253253253253253253253253253248101000154225225216154065000000074090091090080042000009044073078073040025042042080158092018000011116209225225206102252253253253253253253253253253253253253253253",
"253253253253253253253253253253253249139000122209229225215190122037000000039072074079090090090091090090092092091089072000021129205217225217229137130253253253253253253253253253253253253253253253",
"253253253253253253253253253253253253253226000000146214229225225211194149131105052002000000004039039039017000000063112131208223225224225223137130248253253253253253253253253253253253253253253253",
"253253253253253253253253253253253253253253246130000015140204224229225225225224215206190153146117121135189149202215224225225217217229206116199252253253253253253253253253253253253253253253253253",
"253253253253253253253253253253253253253253253253244196004000108149205214224229225229229229229225225229229229225225225225225216205129101241253253253253253253253253253253253253253253253253253253",
"253253253253253253253253253253253253253253253253253253249226111000000023112137151189189190195205206209206209209205202189136063000188249253253253253253253253253253253253253253253253253253253253",
"253253253253253253253253253253253253253253253253253253253253252246227188114054024000000000000000006021022026026047005000057196247253253253253253253253253253253253253253253253253253253253253253",
"253253253253253253253253253253253253253253253253253253253253253253253253251247243228219186111065031022053024143234226219248253253253253253253253253253253253253253253253253253253253253253253253"
};
